<svg width="24" height="24" viewBox="0 0 24 24" fill="none" xmlns="http://www.w3.org/2000/svg">
<mask id="mask0_110_16921" style="mask-type:alpha" maskUnits="userSpaceOnUse" x="0" y="0" width="24" height="24">
<rect width="24" height="24" fill="#D9D9D9"/>
</mask>
<g mask="url(#mask0_110_16921)">
<path d="M8.70026 12.925L10.0753 13.85L11.5503 13.1C11.6836 13.0167 11.8336 12.975 12.0003 12.975C12.1669 12.975 12.3169 13.0167 12.4503 13.1L13.9253 13.85L15.2503 12.975L14.2503 11H9.65026L8.70026 12.925ZM5.22526 20H18.7503L16.1503 14.775L14.5503 15.85C14.4003 15.95 14.2378 16.0042 14.0628 16.0125C13.8878 16.0208 13.7169 15.9833 13.5503 15.9L12.0003 15.125L10.4503 15.9C10.2836 15.9833 10.1128 16.0167 9.93776 16C9.76276 15.9833 9.60026 15.925 9.45026 15.825L7.80026 14.75L5.22526 20ZM3.60026 22C3.21693 22 2.92943 21.8417 2.73776 21.525C2.5461 21.2083 2.5336 20.8833 2.70026 20.55L7.85026 10.125C8.01693 9.79167 8.26276 9.52083 8.58776 9.3125C8.91276 9.10417 9.26693 9 9.65026 9H11.0003V3C11.0003 2.71667 11.0961 2.47917 11.2878 2.2875C11.4794 2.09583 11.7169 2 12.0003 2H17.2003C17.3836 2 17.5253 2.07917 17.6253 2.2375C17.7253 2.39583 17.7336 2.55833 17.6503 2.725L17.1003 3.775C17.0669 3.85833 17.0503 3.93333 17.0503 4C17.0503 4.06667 17.0669 4.14167 17.1003 4.225L17.6503 5.275C17.7336 5.44167 17.7253 5.60417 17.6253 5.7625C17.5253 5.92083 17.3836 6 17.2003 6H13.0003V9H14.2503C14.6336 9 14.9836 9.1 15.3003 9.3C15.6169 9.5 15.8669 9.76667 16.0503 10.1L21.2753 20.55C21.4419 20.8833 21.4294 21.2083 21.2378 21.525C21.0461 21.8417 20.7586 22 20.3753 22H3.60026Z" fill="#3E2417"/>
</g>
</svg>
