<svg width="24" height="24" viewBox="0 0 24 24" fill="none" xmlns="http://www.w3.org/2000/svg">
<mask id="mask0_110_16924" style="mask-type:alpha" maskUnits="userSpaceOnUse" x="0" y="0" width="24" height="24">
<rect width="24" height="24" fill="#D9D9D9"/>
</mask>
<g mask="url(#mask0_110_16924)">
<path d="M7 12C7 12.2833 6.90417 12.5208 6.7125 12.7125C6.52083 12.9042 6.28333 13 6 13H2C1.71667 13 1.47917 12.9042 1.2875 12.7125C1.09583 12.5208 1 12.2833 1 12C1 11.7167 1.09583 11.4792 1.2875 11.2875C1.47917 11.0958 1.71667 11 2 11H6C6.28333 11 6.52083 11.0958 6.7125 11.2875C6.90417 11.4792 7 11.7167 7 12ZM8.45 8.45C8.26667 8.63333 8.03333 8.725 7.75 8.725C7.46667 8.725 7.23333 8.63333 7.05 8.45L6.35 7.75C6.16667 7.56667 6.075 7.33333 6.075 7.05C6.075 6.76667 6.16667 6.53333 6.35 6.35C6.53333 6.16667 6.76667 6.075 7.05 6.075C7.33333 6.075 7.56667 6.16667 7.75 6.35L8.45 7.05C8.63333 7.23333 8.725 7.46667 8.725 7.75C8.725 8.03333 8.63333 8.26667 8.45 8.45ZM11 6V2C11 1.71667 11.0958 1.47917 11.2875 1.2875C11.4792 1.09583 11.7167 1 12 1C12.2833 1 12.5208 1.09583 12.7125 1.2875C12.9042 1.47917 13 1.71667 13 2V6C13 6.28333 12.9042 6.52083 12.7125 6.7125C12.5208 6.90417 12.2833 7 12 7C11.7167 7 11.4792 6.90417 11.2875 6.7125C11.0958 6.52083 11 6.28333 11 6ZM15.55 8.45C15.3667 8.26667 15.275 8.03333 15.275 7.75C15.275 7.46667 15.3667 7.23333 15.55 7.05L16.25 6.35C16.4333 6.16667 16.6667 6.075 16.95 6.075C17.2333 6.075 17.4667 6.16667 17.65 6.35C17.8333 6.53333 17.925 6.76667 17.925 7.05C17.925 7.33333 17.8333 7.56667 17.65 7.75L16.95 8.45C16.7667 8.63333 16.5333 8.725 16.25 8.725C15.9667 8.725 15.7333 8.63333 15.55 8.45ZM17 12C17 11.7167 17.0958 11.4792 17.2875 11.2875C17.4792 11.0958 17.7167 11 18 11H22C22.2833 11 22.5208 11.0958 22.7125 11.2875C22.9042 11.4792 23 11.7167 23 12C23 12.2833 22.9042 12.5208 22.7125 12.7125C22.5208 12.9042 22.2833 13 22 13H18C17.7167 13 17.4792 12.9042 17.2875 12.7125C17.0958 12.5208 17 12.2833 17 12ZM12 15C11.1667 15 10.4583 14.7083 9.875 14.125C9.29167 13.5417 9 12.8333 9 12C9 11.1667 9.29167 10.4583 9.875 9.875C10.4583 9.29167 11.1667 9 12 9C12.8333 9 13.5417 9.29167 14.125 9.875C14.7083 10.4583 15 11.1667 15 12C15 12.8333 14.7083 13.5417 14.125 14.125C13.5417 14.7083 12.8333 15 12 15ZM15.55 15.55C15.7333 15.3667 15.9667 15.275 16.25 15.275C16.5333 15.275 16.7667 15.3667 16.95 15.55L17.65 16.25C17.8333 16.4333 17.925 16.6667 17.925 16.95C17.925 17.2333 17.8333 17.4667 17.65 17.65C17.4667 17.8333 17.2333 17.925 16.95 17.925C16.6667 17.925 16.4333 17.8333 16.25 17.65L15.55 16.95C15.3667 16.7667 15.275 16.5333 15.275 16.25C15.275 15.9667 15.3667 15.7333 15.55 15.55ZM8.45 15.55C8.63333 15.7333 8.725 15.9667 8.725 16.25C8.725 16.5333 8.63333 16.7667 8.45 16.95L7.75 17.65C7.56667 17.8333 7.33333 17.925 7.05 17.925C6.76667 17.925 6.53333 17.8333 6.35 17.65C6.16667 17.4667 6.075 17.2333 6.075 16.95C6.075 16.6667 6.16667 16.4333 6.35 16.25L7.05 15.55C7.23333 15.3667 7.46667 15.275 7.75 15.275C8.03333 15.275 8.26667 15.3667 8.45 15.55ZM12 17C12.2833 17 12.5208 17.0958 12.7125 17.2875C12.9042 17.4792 13 17.7167 13 18V22C13 22.2833 12.9042 22.5208 12.7125 22.7125C12.5208 22.9042 12.2833 23 12 23C11.7167 23 11.4792 22.9042 11.2875 22.7125C11.0958 22.5208 11 22.2833 11 22V18C11 17.7167 11.0958 17.4792 11.2875 17.2875C11.4792 17.0958 11.7167 17 12 17Z" fill="#3E2417"/>
</g>
</svg>
