<svg width="24" height="24" viewBox="0 0 24 24" fill="none" xmlns="http://www.w3.org/2000/svg">
<mask id="mask0_110_16915" style="mask-type:alpha" maskUnits="userSpaceOnUse" x="0" y="0" width="24" height="24">
<rect width="24" height="24" fill="#D9D9D9"/>
</mask>
<g mask="url(#mask0_110_16915)">
<path d="M11.9997 8C9.66639 8 7.64972 8.78333 5.94972 10.35C4.24972 11.9167 3.28305 13.8417 3.04972 16.125C3.01639 16.3917 2.89972 16.6042 2.69972 16.7625C2.49972 16.9208 2.26639 17 1.99972 17C1.71639 17 1.47472 16.9125 1.27472 16.7375C1.07472 16.5625 0.991388 16.35 1.02472 16.1C1.14139 14.7 1.50805 13.3833 2.12472 12.15C2.74139 10.9167 3.54139 9.84583 4.52472 8.9375C5.50805 8.02917 6.64139 7.3125 7.92472 6.7875C9.20805 6.2625 10.5664 6 11.9997 6C13.4331 6 14.7914 6.2625 16.0747 6.7875C17.3581 7.3125 18.4914 8.02917 19.4747 8.9375C20.4581 9.84583 21.2581 10.9167 21.8747 12.15C22.4914 13.3833 22.8581 14.7 22.9747 16.1C23.0081 16.35 22.9247 16.5625 22.7247 16.7375C22.5247 16.9125 22.2831 17 21.9997 17C21.7331 17 21.4997 16.9208 21.2997 16.7625C21.0997 16.6042 20.9831 16.3917 20.9497 16.125C20.7164 13.8417 19.7497 11.9167 18.0497 10.35C16.3497 8.78333 14.3331 8 11.9997 8ZM11.9997 12C10.7497 12 9.66639 12.4 8.74972 13.2C7.83305 14 7.27472 15 7.07472 16.2C7.04139 16.45 6.92055 16.6458 6.71222 16.7875C6.50389 16.9292 6.26639 17 5.99972 17C5.71639 17 5.47889 16.9125 5.28722 16.7375C5.09555 16.5625 5.01639 16.35 5.04972 16.1C5.28305 14.3833 6.05389 12.9375 7.36222 11.7625C8.67055 10.5875 10.2164 10 11.9997 10C13.7831 10 15.3289 10.5875 16.6372 11.7625C17.9456 12.9375 18.7164 14.3833 18.9497 16.1C18.9831 16.35 18.9039 16.5625 18.7122 16.7375C18.5206 16.9125 18.2831 17 17.9997 17C17.7331 17 17.4956 16.9292 17.2872 16.7875C17.0789 16.6458 16.9581 16.45 16.9247 16.2C16.7247 15 16.1664 14 15.2497 13.2C14.3331 12.4 13.2497 12 11.9997 12Z" fill="#3E2417"/>
</g>
</svg>
